<svg xmlns="http://www.w3.org/2000/svg" viewBox="0 0 360 360" width="360" height="360">
  <defs>
    <radialGradient id="bg" cx="50%" cy="50%" r="50%">
      <stop offset="0%" stop-color="#1A0D08"/>
      <stop offset="100%" stop-color="#05030A"/>
    </radialGradient>
    <radialGradient id="core" cx="50%" cy="50%" r="50%">
      <stop offset="0%" stop-color="#FFE3BC" stop-opacity="0.55"/>
      <stop offset="100%" stop-color="#FFE3BC" stop-opacity="0"/>
    </radialGradient>
    <clipPath id="screen"><circle cx="180" cy="180" r="178"/></clipPath>
  </defs>
  <circle cx="180" cy="180" r="178" fill="url(#bg)"/>
  <g clip-path="url(#screen)">
    <circle cx="180" cy="180" r="62" fill="url(#core)"/>
      <circle cx="262.2" cy="193.0" r="1.41" fill="#FFE3BC" fill-opacity="0.489"/>
      <circle cx="183.3" cy="199.6" r="2.01" fill="#FFE3BC" fill-opacity="0.708"/>
      <circle cx="133.0" cy="85.2" r="1.19" fill="#FFE3BC" fill-opacity="0.393"/>
      <circle cx="305.3" cy="256.2" r="0.80" fill="#FFE3BC" fill-opacity="0.206"/>
      <circle cx="220.3" cy="187.6" r="1.81" fill="#FFE3BC" fill-opacity="0.644"/>
      <circle cx="166.6" cy="179.5" r="2.07" fill="#FFE3BC" fill-opacity="0.724"/>
      <circle cx="180.1" cy="180.4" r="2.20" fill="#FFE3BC" fill-opacity="0.748"/>
      <circle cx="97.8" cy="156.2" r="1.38" fill="#FFE3BC" fill-opacity="0.479"/>
      <circle cx="168.5" cy="172.8" r="2.07" fill="#FFE3BC" fill-opacity="0.723"/>
      <circle cx="304.2" cy="185.1" r="1.01" fill="#FFE3BC" fill-opacity="0.311"/>
      <circle cx="140.5" cy="63.2" r="1.02" fill="#FFE3BC" fill-opacity="0.315"/>
      <circle cx="195.9" cy="203.6" r="1.93" fill="#FFE3BC" fill-opacity="0.684"/>
      <circle cx="94.5" cy="321.4" r="0.62" fill="#FFE3BC" fill-opacity="0.115"/>
      <circle cx="182.6" cy="181.8" r="2.17" fill="#FFE3BC" fill-opacity="0.744"/>
      <circle cx="73.2" cy="98.5" r="0.92" fill="#FFE3BC" fill-opacity="0.264"/>
      <circle cx="164.3" cy="57.3" r="1.02" fill="#FFE3BC" fill-opacity="0.314"/>
      <circle cx="240.8" cy="169.6" r="1.61" fill="#FFE3BC" fill-opacity="0.572"/>
      <circle cx="147.7" cy="169.0" r="1.87" fill="#FFE3BC" fill-opacity="0.667"/>
      <circle cx="84.8" cy="92.2" r="0.96" fill="#FFE3BC" fill-opacity="0.287"/>
      <circle cx="57.8" cy="115.4" r="0.88" fill="#FFE3BC" fill-opacity="0.246"/>
      <circle cx="274.1" cy="207.9" r="1.26" fill="#FFE3BC" fill-opacity="0.427"/>
      <circle cx="176.5" cy="194.0" r="2.06" fill="#FFE3BC" fill-opacity="0.721"/>
      <circle cx="180.3" cy="182.4" r="2.18" fill="#FFE3BC" fill-opacity="0.745"/>
      <circle cx="179.4" cy="183.6" r="2.17" fill="#FFE3BC" fill-opacity="0.744"/>
      <circle cx="125.6" cy="241.9" r="1.41" fill="#FFE3BC" fill-opacity="0.492"/>
      <circle cx="188.3" cy="211.8" r="1.89" fill="#FFE3BC" fill-opacity="0.670"/>
      <circle cx="197.4" cy="172.7" r="2.02" fill="#FFE3BC" fill-opacity="0.710"/>
      <circle cx="114.1" cy="126.1" r="1.39" fill="#FFE3BC" fill-opacity="0.481"/>
      <circle cx="178.8" cy="171.2" r="2.12" fill="#FFE3BC" fill-opacity="0.734"/>
      <circle cx="174.1" cy="185.6" r="2.12" fill="#FFE3BC" fill-opacity="0.735"/>
      <circle cx="68.6" cy="45.3" r="0.53" fill="#FFE3BC" fill-opacity="0.067"/>
      <circle cx="153.7" cy="119.7" r="1.57" fill="#FFE3BC" fill-opacity="0.557"/>
      <circle cx="201.6" cy="48.7" r="0.93" fill="#FFE3BC" fill-opacity="0.270"/>
      <circle cx="194.2" cy="182.9" r="2.06" fill="#FFE3BC" fill-opacity="0.721"/>
      <circle cx="177.2" cy="204.9" r="1.96" fill="#FFE3BC" fill-opacity="0.694"/>
      <circle cx="191.8" cy="175.6" r="2.08" fill="#FFE3BC" fill-opacity="0.726"/>
      <circle cx="123.8" cy="310.6" r="0.84" fill="#FFE3BC" fill-opacity="0.227"/>
      <circle cx="111.2" cy="232.9" r="1.37" fill="#FFE3BC" fill-opacity="0.474"/>
      <circle cx="32.2" cy="219.1" r="0.74" fill="#FFE3BC" fill-opacity="0.176"/>
      <circle cx="180.4" cy="198.6" r="2.02" fill="#FFE3BC" fill-opacity="0.711"/>
      <circle cx="174.7" cy="246.5" r="1.56" fill="#FFE3BC" fill-opacity="0.553"/>
      <circle cx="237.2" cy="137.2" r="1.52" fill="#FFE3BC" fill-opacity="0.535"/>
      <circle cx="187.2" cy="216.7" r="1.84" fill="#FFE3BC" fill-opacity="0.656"/>
      <circle cx="3.1" cy="169.4" r="0.51" fill="#FFE3BC" fill-opacity="0.055"/>
      <circle cx="182.9" cy="180.9" r="2.17" fill="#FFE3BC" fill-opacity="0.745"/>
      <circle cx="177.1" cy="177.0" r="2.16" fill="#FFE3BC" fill-opacity="0.743"/>
      <circle cx="74.3" cy="236.3" r="1.06" fill="#FFE3BC" fill-opacity="0.332"/>
      <circle cx="178.8" cy="181.1" r="2.18" fill="#FFE3BC" fill-opacity="0.746"/>
      <circle cx="6.1" cy="147.8" r="0.51" fill="#FFE3BC" fill-opacity="0.057"/>
      <circle cx="288.6" cy="50.1" r="0.58" fill="#FFE3BC" fill-opacity="0.095"/>
      <circle cx="180.0" cy="179.9" r="2.20" fill="#FFE3BC" fill-opacity="0.748"/>
      <circle cx="89.7" cy="158.6" r="1.31" fill="#FFE3BC" fill-opacity="0.449"/>
      <circle cx="168.1" cy="165.4" r="2.02" fill="#FFE3BC" fill-opacity="0.710"/>
      <circle cx="176.1" cy="181.7" r="2.16" fill="#FFE3BC" fill-opacity="0.743"/>
      <circle cx="224.5" cy="166.7" r="1.76" fill="#FFE3BC" fill-opacity="0.626"/>
      <circle cx="168.1" cy="321.6" r="0.84" fill="#FFE3BC" fill-opacity="0.228"/>
      <circle cx="203.8" cy="229.5" r="1.68" fill="#FFE3BC" fill-opacity="0.597"/>
      <circle cx="284.7" cy="69.3" r="0.74" fill="#FFE3BC" fill-opacity="0.179"/>
      <circle cx="165.4" cy="162.5" r="1.98" fill="#FFE3BC" fill-opacity="0.700"/>
      <circle cx="223.9" cy="242.8" r="1.47" fill="#FFE3BC" fill-opacity="0.515"/>
      <circle cx="71.2" cy="152.5" r="1.13" fill="#FFE3BC" fill-opacity="0.365"/>
      <circle cx="65.8" cy="157.9" r="1.09" fill="#FFE3BC" fill-opacity="0.347"/>
      <circle cx="180.0" cy="180.0" r="2.20" fill="#FFE3BC" fill-opacity="0.748"/>
      <circle cx="180.2" cy="179.9" r="2.20" fill="#FFE3BC" fill-opacity="0.748"/>
      <circle cx="250.1" cy="55.5" r="0.84" fill="#FFE3BC" fill-opacity="0.224"/>
      <circle cx="202.4" cy="188.5" r="1.97" fill="#FFE3BC" fill-opacity="0.697"/>
      <circle cx="314.8" cy="133.3" r="0.84" fill="#FFE3BC" fill-opacity="0.225"/>
      <circle cx="177.3" cy="180.2" r="2.17" fill="#FFE3BC" fill-opacity="0.745"/>
      <circle cx="180.1" cy="178.1" r="2.18" fill="#FFE3BC" fill-opacity="0.746"/>
      <circle cx="258.2" cy="261.7" r="1.12" fill="#FFE3BC" fill-opacity="0.361"/>
      <circle cx="132.2" cy="164.5" r="1.72" fill="#FFE3BC" fill-opacity="0.613"/>
      <circle cx="193.0" cy="166.6" r="2.02" fill="#FFE3BC" fill-opacity="0.711"/>
      <circle cx="189.8" cy="220.1" r="1.81" fill="#FFE3BC" fill-opacity="0.644"/>
      <circle cx="172.2" cy="118.2" r="1.60" fill="#FFE3BC" fill-opacity="0.570"/>
      <circle cx="175.6" cy="190.8" r="2.09" fill="#FFE3BC" fill-opacity="0.728"/>
      <circle cx="76.1" cy="37.3" r="0.51" fill="#FFE3BC" fill-opacity="0.058"/>
      <circle cx="136.5" cy="175.2" r="1.78" fill="#FFE3BC" fill-opacity="0.636"/>
      <circle cx="180.8" cy="184.8" r="2.15" fill="#FFE3BC" fill-opacity="0.741"/>
      <circle cx="156.1" cy="165.2" r="1.93" fill="#FFE3BC" fill-opacity="0.685"/>
      <circle cx="182.7" cy="194.4" r="2.06" fill="#FFE3BC" fill-opacity="0.721"/>
      <circle cx="178.7" cy="178.5" r="2.18" fill="#FFE3BC" fill-opacity="0.746"/>
      <circle cx="192.0" cy="171.9" r="2.06" fill="#FFE3BC" fill-opacity="0.721"/>
      <circle cx="304.2" cy="239.3" r="0.89" fill="#FFE3BC" fill-opacity="0.249"/>
      <circle cx="172.4" cy="166.5" r="2.05" fill="#FFE3BC" fill-opacity="0.719"/>
      <circle cx="188.7" cy="189.6" r="2.08" fill="#FFE3BC" fill-opacity="0.725"/>
      <circle cx="36.6" cy="111.4" r="0.68" fill="#FFE3BC" fill-opacity="0.146"/>
      <circle cx="190.7" cy="131.4" r="1.72" fill="#FFE3BC" fill-opacity="0.615"/>
      <circle cx="225.3" cy="295.2" r="1.02" fill="#FFE3BC" fill-opacity="0.313"/>
      <circle cx="176.9" cy="181.4" r="2.17" fill="#FFE3BC" fill-opacity="0.744"/>
      <circle cx="139.6" cy="188.5" r="1.81" fill="#FFE3BC" fill-opacity="0.644"/>
      <circle cx="131.8" cy="87.8" r="1.21" fill="#FFE3BC" fill-opacity="0.401"/>
      <circle cx="321.2" cy="280.4" r="0.55" fill="#FFE3BC" fill-opacity="0.075"/>
      <circle cx="159.8" cy="212.1" r="1.84" fill="#FFE3BC" fill-opacity="0.655"/>
      <circle cx="181.2" cy="318.2" r="0.88" fill="#FFE3BC" fill-opacity="0.246"/>
      <circle cx="170.0" cy="183.4" r="2.10" fill="#FFE3BC" fill-opacity="0.730"/>
      <circle cx="172.7" cy="220.4" r="1.81" fill="#FFE3BC" fill-opacity="0.645"/>
      <circle cx="194.9" cy="172.2" r="2.04" fill="#FFE3BC" fill-opacity="0.715"/>
      <circle cx="208.7" cy="145.9" r="1.77" fill="#FFE3BC" fill-opacity="0.633"/>
      <circle cx="241.3" cy="200.2" r="1.58" fill="#FFE3BC" fill-opacity="0.562"/>
      <circle cx="271.5" cy="27.6" r="0.50" fill="#FFE3BC" fill-opacity="0.052"/>
      <circle cx="331.0" cy="104.7" r="0.59" fill="#FFE3BC" fill-opacity="0.098"/>
      <circle cx="247.6" cy="296.5" r="0.91" fill="#FFE3BC" fill-opacity="0.263"/>
      <circle cx="191.8" cy="230.8" r="1.70" fill="#FFE3BC" fill-opacity="0.607"/>
      <circle cx="215.1" cy="193.6" r="1.84" fill="#FFE3BC" fill-opacity="0.655"/>
      <circle cx="214.1" cy="176.8" r="1.87" fill="#FFE3BC" fill-opacity="0.666"/>
      <circle cx="184.0" cy="161.8" r="2.02" fill="#FFE3BC" fill-opacity="0.711"/>
      <circle cx="138.7" cy="201.7" r="1.75" fill="#FFE3BC" fill-opacity="0.626"/>
      <circle cx="345.2" cy="175.2" r="0.62" fill="#FFE3BC" fill-opacity="0.115"/>
      <circle cx="167.1" cy="115.7" r="1.57" fill="#FFE3BC" fill-opacity="0.558"/>
      <circle cx="177.8" cy="187.1" r="2.13" fill="#FFE3BC" fill-opacity="0.737"/>
      <circle cx="31.8" cy="99.5" r="0.59" fill="#FFE3BC" fill-opacity="0.098"/>
      <circle cx="179.2" cy="117.1" r="1.60" fill="#FFE3BC" fill-opacity="0.568"/>
      <circle cx="178.8" cy="179.3" r="2.19" fill="#FFE3BC" fill-opacity="0.747"/>
      <circle cx="213.3" cy="135.8" r="1.67" fill="#FFE3BC" fill-opacity="0.595"/>
      <circle cx="187.5" cy="178.1" r="2.13" fill="#FFE3BC" fill-opacity="0.736"/>
      <circle cx="181.0" cy="182.2" r="2.18" fill="#FFE3BC" fill-opacity="0.745"/>
      <circle cx="146.7" cy="114.3" r="1.50" fill="#FFE3BC" fill-opacity="0.527"/>
      <circle cx="191.1" cy="190.4" r="2.05" fill="#FFE3BC" fill-opacity="0.720"/>
      <circle cx="183.5" cy="326.0" r="0.80" fill="#FFE3BC" fill-opacity="0.209"/>
      <circle cx="126.2" cy="129.9" r="1.50" fill="#FFE3BC" fill-opacity="0.527"/>
      <circle cx="144.9" cy="159.6" r="1.81" fill="#FFE3BC" fill-opacity="0.646"/>
      <circle cx="234.2" cy="156.4" r="1.64" fill="#FFE3BC" fill-opacity="0.582"/>
      <circle cx="177.5" cy="168.3" r="2.09" fill="#FFE3BC" fill-opacity="0.727"/>
      <circle cx="167.6" cy="189.5" r="2.05" fill="#FFE3BC" fill-opacity="0.719"/>
      <circle cx="152.0" cy="266.1" r="1.34" fill="#FFE3BC" fill-opacity="0.459"/>
      <circle cx="180.3" cy="154.9" r="1.96" fill="#FFE3BC" fill-opacity="0.693"/>
      <circle cx="178.0" cy="180.5" r="2.18" fill="#FFE3BC" fill-opacity="0.746"/>
      <circle cx="357.5" cy="175.6" r="0.50" fill="#FFE3BC" fill-opacity="0.053"/>
      <circle cx="180.5" cy="182.0" r="2.18" fill="#FFE3BC" fill-opacity="0.746"/>
      <circle cx="197.0" cy="172.4" r="2.02" fill="#FFE3BC" fill-opacity="0.711"/>
      <circle cx="284.1" cy="81.3" r="0.83" fill="#FFE3BC" fill-opacity="0.221"/>
      <circle cx="197.9" cy="207.4" r="1.89" fill="#FFE3BC" fill-opacity="0.671"/>
      <circle cx="142.4" cy="54.9" r="0.95" fill="#FFE3BC" fill-opacity="0.282"/>
      <circle cx="256.9" cy="173.8" r="1.46" fill="#FFE3BC" fill-opacity="0.513"/>
      <circle cx="266.4" cy="184.2" r="1.37" fill="#FFE3BC" fill-opacity="0.475"/>
      <circle cx="141.5" cy="300.2" r="0.99" fill="#FFE3BC" fill-opacity="0.302"/>
      <circle cx="262.2" cy="146.8" r="1.35" fill="#FFE3BC" fill-opacity="0.467"/>
      <circle cx="184.4" cy="183.9" r="2.14" fill="#FFE3BC" fill-opacity="0.740"/>
      <circle cx="176.2" cy="178.7" r="2.16" fill="#FFE3BC" fill-opacity="0.743"/>
      <circle cx="164.6" cy="168.1" r="2.01" fill="#FFE3BC" fill-opacity="0.709"/>
      <circle cx="209.1" cy="277.0" r="1.23" fill="#FFE3BC" fill-opacity="0.413"/>
      <circle cx="172.8" cy="261.8" r="1.42" fill="#FFE3BC" fill-opacity="0.493"/>
      <circle cx="223.6" cy="150.5" r="1.70" fill="#FFE3BC" fill-opacity="0.605"/>
      <circle cx="292.1" cy="253.4" r="0.92" fill="#FFE3BC" fill-opacity="0.266"/>
      <circle cx="173.1" cy="220.7" r="1.81" fill="#FFE3BC" fill-opacity="0.644"/>
      <circle cx="180.0" cy="180.0" r="2.20" fill="#FFE3BC" fill-opacity="0.748"/>
      <circle cx="173.8" cy="262.5" r="1.41" fill="#FFE3BC" fill-opacity="0.491"/>
      <circle cx="78.6" cy="145.9" r="1.18" fill="#FFE3BC" fill-opacity="0.388"/>
      <circle cx="221.9" cy="182.6" r="1.80" fill="#FFE3BC" fill-opacity="0.641"/>
      <circle cx="181.6" cy="178.5" r="2.18" fill="#FFE3BC" fill-opacity="0.746"/>
      <circle cx="36.2" cy="137.6" r="0.77" fill="#FFE3BC" fill-opacity="0.190"/>
      <circle cx="66.3" cy="115.1" r="0.95" fill="#FFE3BC" fill-opacity="0.281"/>
      <circle cx="184.8" cy="185.0" r="2.13" fill="#FFE3BC" fill-opacity="0.738"/>
      <circle cx="199.4" cy="165.7" r="1.97" fill="#FFE3BC" fill-opacity="0.696"/>
      <circle cx="257.4" cy="87.3" r="1.05" fill="#FFE3BC" fill-opacity="0.327"/>
      <circle cx="216.9" cy="323.9" r="0.78" fill="#FFE3BC" fill-opacity="0.197"/>
      <circle cx="193.4" cy="190.1" r="2.04" fill="#FFE3BC" fill-opacity="0.716"/>
      <circle cx="267.1" cy="102.3" r="1.09" fill="#FFE3BC" fill-opacity="0.345"/>
      <circle cx="152.0" cy="153.5" r="1.83" fill="#FFE3BC" fill-opacity="0.653"/>
      <circle cx="186.7" cy="176.8" r="2.13" fill="#FFE3BC" fill-opacity="0.737"/>
      <circle cx="317.4" cy="159.3" r="0.87" fill="#FFE3BC" fill-opacity="0.243"/>
      <circle cx="271.6" cy="95.5" r="1.01" fill="#FFE3BC" fill-opacity="0.310"/>
      <circle cx="180.0" cy="179.7" r="2.20" fill="#FFE3BC" fill-opacity="0.748"/>
      <circle cx="204.8" cy="168.5" r="1.94" fill="#FFE3BC" fill-opacity="0.687"/>
      <circle cx="260.4" cy="87.7" r="1.03" fill="#FFE3BC" fill-opacity="0.320"/>
      <circle cx="166.9" cy="303.9" r="1.01" fill="#FFE3BC" fill-opacity="0.310"/>
      <circle cx="272.2" cy="254.5" r="1.07" fill="#FFE3BC" fill-opacity="0.337"/>
      <circle cx="269.0" cy="70.5" r="0.85" fill="#FFE3BC" fill-opacity="0.233"/>
      <circle cx="185.6" cy="167.4" r="2.07" fill="#FFE3BC" fill-opacity="0.723"/>
      <circle cx="163.8" cy="224.8" r="1.75" fill="#FFE3BC" fill-opacity="0.623"/>
      <circle cx="196.9" cy="299.4" r="1.05" fill="#FFE3BC" fill-opacity="0.328"/>
      <circle cx="180.1" cy="180.3" r="2.20" fill="#FFE3BC" fill-opacity="0.748"/>
      <circle cx="197.6" cy="159.8" r="1.94" fill="#FFE3BC" fill-opacity="0.689"/>
      <circle cx="149.4" cy="345.3" r="0.59" fill="#FFE3BC" fill-opacity="0.101"/>
      <circle cx="112.4" cy="229.3" r="1.40" fill="#FFE3BC" fill-opacity="0.487"/>
      <circle cx="12.1" cy="141.1" r="0.55" fill="#FFE3BC" fill-opacity="0.080"/>
      <circle cx="299.8" cy="286.1" r="0.67" fill="#FFE3BC" fill-opacity="0.141"/>
      <circle cx="253.4" cy="332.4" r="0.58" fill="#FFE3BC" fill-opacity="0.096"/>
      <circle cx="163.8" cy="346.0" r="0.61" fill="#FFE3BC" fill-opacity="0.107"/>
      <circle cx="176.3" cy="181.6" r="2.16" fill="#FFE3BC" fill-opacity="0.743"/>
      <circle cx="139.5" cy="275.7" r="1.21" fill="#FFE3BC" fill-opacity="0.402"/>
      <circle cx="104.2" cy="174.5" r="1.47" fill="#FFE3BC" fill-opacity="0.517"/>
      <circle cx="148.8" cy="163.7" r="1.86" fill="#FFE3BC" fill-opacity="0.663"/>
      <circle cx="175.5" cy="163.2" r="2.03" fill="#FFE3BC" fill-opacity="0.714"/>
      <circle cx="180.0" cy="180.0" r="2.20" fill="#FFE3BC" fill-opacity="0.748"/>
      <circle cx="168.1" cy="119.0" r="1.61" fill="#FFE3BC" fill-opacity="0.571"/>
      <circle cx="128.7" cy="85.9" r="1.18" fill="#FFE3BC" fill-opacity="0.388"/>
      <circle cx="208.9" cy="193.6" r="1.89" fill="#FFE3BC" fill-opacity="0.673"/>
      <circle cx="137.1" cy="257.8" r="1.35" fill="#FFE3BC" fill-opacity="0.466"/>
      <circle cx="194.3" cy="159.7" r="1.96" fill="#FFE3BC" fill-opacity="0.694"/>
      <circle cx="148.4" cy="276.7" r="1.23" fill="#FFE3BC" fill-opacity="0.411"/>
      <circle cx="159.7" cy="193.2" r="1.97" fill="#FFE3BC" fill-opacity="0.696"/>
      <circle cx="169.3" cy="216.3" r="1.84" fill="#FFE3BC" fill-opacity="0.655"/>
      <circle cx="175.3" cy="182.6" r="2.15" fill="#FFE3BC" fill-opacity="0.741"/>
      <circle cx="109.3" cy="36.1" r="0.67" fill="#FFE3BC" fill-opacity="0.140"/>
      <circle cx="68.1" cy="80.7" r="0.77" fill="#FFE3BC" fill-opacity="0.192"/>
      <circle cx="157.9" cy="173.1" r="1.98" fill="#FFE3BC" fill-opacity="0.699"/>
      <circle cx="180.0" cy="180.0" r="2.20" fill="#FFE3BC" fill-opacity="0.748"/>
      <circle cx="142.9" cy="159.6" r="1.80" fill="#FFE3BC" fill-opacity="0.640"/>
      <circle cx="95.5" cy="198.9" r="1.37" fill="#FFE3BC" fill-opacity="0.475"/>
      <circle cx="190.1" cy="223.3" r="1.78" fill="#FFE3BC" fill-opacity="0.633"/>
      <circle cx="220.6" cy="151.0" r="1.72" fill="#FFE3BC" fill-opacity="0.615"/>
      <circle cx="238.4" cy="285.7" r="1.05" fill="#FFE3BC" fill-opacity="0.327"/>
      <circle cx="177.3" cy="179.7" r="2.17" fill="#FFE3BC" fill-opacity="0.745"/>
      <circle cx="138.3" cy="250.4" r="1.42" fill="#FFE3BC" fill-opacity="0.494"/>
      <circle cx="180.9" cy="53.4" r="0.99" fill="#FFE3BC" fill-opacity="0.300"/>
      <circle cx="194.4" cy="269.6" r="1.33" fill="#FFE3BC" fill-opacity="0.458"/>
      <circle cx="191.3" cy="181.8" r="2.09" fill="#FFE3BC" fill-opacity="0.728"/>
      <circle cx="163.9" cy="182.5" r="2.04" fill="#FFE3BC" fill-opacity="0.717"/>
      <circle cx="301.1" cy="239.6" r="0.91" fill="#FFE3BC" fill-opacity="0.262"/>
      <circle cx="152.7" cy="151.0" r="1.82" fill="#FFE3BC" fill-opacity="0.648"/>
      <circle cx="176.4" cy="169.6" r="2.09" fill="#FFE3BC" fill-opacity="0.729"/>
      <circle cx="182.0" cy="233.7" r="1.69" fill="#FFE3BC" fill-opacity="0.601"/>
      <circle cx="266.9" cy="183.0" r="1.37" fill="#FFE3BC" fill-opacity="0.473"/>
      <circle cx="193.7" cy="71.5" r="1.16" fill="#FFE3BC" fill-opacity="0.378"/>
      <circle cx="176.5" cy="181.8" r="2.16" fill="#FFE3BC" fill-opacity="0.743"/>
      <circle cx="189.0" cy="177.6" r="2.11" fill="#FFE3BC" fill-opacity="0.733"/>
      <circle cx="235.3" cy="198.1" r="1.64" fill="#FFE3BC" fill-opacity="0.585"/>
      <circle cx="189.7" cy="166.3" r="2.04" fill="#FFE3BC" fill-opacity="0.716"/>
      <circle cx="194.9" cy="135.5" r="1.75" fill="#FFE3BC" fill-opacity="0.625"/>
      <circle cx="269.3" cy="173.2" r="1.34" fill="#FFE3BC" fill-opacity="0.463"/>
      <circle cx="250.1" cy="157.2" r="1.50" fill="#FFE3BC" fill-opacity="0.526"/>
      <circle cx="68.8" cy="84.8" r="0.80" fill="#FFE3BC" fill-opacity="0.207"/>
      <circle cx="78.4" cy="176.9" r="1.23" fill="#FFE3BC" fill-opacity="0.412"/>
      <circle cx="56.0" cy="141.5" r="0.96" fill="#FFE3BC" fill-opacity="0.286"/>
      <circle cx="174.1" cy="32.1" r="0.79" fill="#FFE3BC" fill-opacity="0.200"/>
      <circle cx="177.1" cy="230.1" r="1.72" fill="#FFE3BC" fill-opacity="0.614"/>
      <circle cx="169.3" cy="167.4" r="2.04" fill="#FFE3BC" fill-opacity="0.716"/>
      <circle cx="67.9" cy="164.9" r="1.12" fill="#FFE3BC" fill-opacity="0.362"/>
      <circle cx="167.6" cy="259.5" r="1.43" fill="#FFE3BC" fill-opacity="0.500"/>
      <circle cx="179.5" cy="182.2" r="2.18" fill="#FFE3BC" fill-opacity="0.746"/>
      <circle cx="171.8" cy="197.6" r="2.01" fill="#FFE3BC" fill-opacity="0.709"/>
      <circle cx="220.3" cy="227.7" r="1.60" fill="#FFE3BC" fill-opacity="0.569"/>
      <circle cx="174.9" cy="166.1" r="2.06" fill="#FFE3BC" fill-opacity="0.721"/>
      <circle cx="270.7" cy="218.7" r="1.26" fill="#FFE3BC" fill-opacity="0.425"/>
      <circle cx="142.7" cy="169.8" r="1.83" fill="#FFE3BC" fill-opacity="0.652"/>
      <circle cx="190.7" cy="218.6" r="1.82" fill="#FFE3BC" fill-opacity="0.648"/>
      <circle cx="213.7" cy="157.1" r="1.81" fill="#FFE3BC" fill-opacity="0.645"/>
      <circle cx="156.1" cy="112.8" r="1.52" fill="#FFE3BC" fill-opacity="0.536"/>
      <circle cx="193.4" cy="43.8" r="0.89" fill="#FFE3BC" fill-opacity="0.253"/>
      <circle cx="180" cy="180" r="40" fill="none" stroke="#FFFFFF" stroke-opacity="0.92" stroke-width="3"/>
    <circle cx="180" cy="180" r="12" fill="none" stroke="#FFFFFF" stroke-opacity="0.92" stroke-width="2.5"/>
    <rect x="177" y="126" width="6" height="13" rx="2" fill="#FFFFFF" fill-opacity="0.88" transform="rotate(0 180 180)"/>
    <rect x="177" y="126" width="6" height="13" rx="2" fill="#FFFFFF" fill-opacity="0.88" transform="rotate(45 180 180)"/>
    <rect x="177" y="126" width="6" height="13" rx="2" fill="#FFFFFF" fill-opacity="0.88" transform="rotate(90 180 180)"/>
    <rect x="177" y="126" width="6" height="13" rx="2" fill="#FFFFFF" fill-opacity="0.88" transform="rotate(135 180 180)"/>
    <rect x="177" y="126" width="6" height="13" rx="2" fill="#FFFFFF" fill-opacity="0.88" transform="rotate(180 180 180)"/>
    <rect x="177" y="126" width="6" height="13" rx="2" fill="#FFFFFF" fill-opacity="0.88" transform="rotate(225 180 180)"/>
    <rect x="177" y="126" width="6" height="13" rx="2" fill="#FFFFFF" fill-opacity="0.88" transform="rotate(270 180 180)"/>
    <rect x="177" y="126" width="6" height="13" rx="2" fill="#FFFFFF" fill-opacity="0.88" transform="rotate(315 180 180)"/>
    <rect x="250" y="150" width="44" height="60" rx="6" fill="none" stroke="#FFFFFF" stroke-opacity="0.5" stroke-width="1.5"/>
    <line x1="258" y1="166" x2="286" y2="166" stroke="#FFFFFF" stroke-opacity="0.5" stroke-width="2"/>
    <line x1="258" y1="180" x2="286" y2="180" stroke="#FFFFFF" stroke-opacity="0.35" stroke-width="2"/>
    <line x1="258" y1="194" x2="278" y2="194" stroke="#FFFFFF" stroke-opacity="0.35" stroke-width="2"/>
  </g>
  <text x="180" y="336" text-anchor="middle" font-family="-apple-system,Segoe UI,Roboto,sans-serif" font-size="14" font-weight="600" fill="#FFFFFF" fill-opacity="0.95">SETTINGS · 设置</text>
  <text x="180" y="352" text-anchor="middle" font-family="-apple-system,Segoe UI,Roboto,sans-serif" font-size="10" fill="#9a8e84" fill-opacity="0.7">SETTINGS · panel</text>
</svg>
