<svg xmlns="http://www.w3.org/2000/svg" viewBox="0 0 360 360" width="360" height="360">
  <defs>
    <radialGradient id="bg" cx="50%" cy="50%" r="50%">
      <stop offset="0%" stop-color="#1A0D08"/>
      <stop offset="100%" stop-color="#05030A"/>
    </radialGradient>
    <radialGradient id="core" cx="50%" cy="50%" r="50%">
      <stop offset="0%" stop-color="#FFE3BC" stop-opacity="0.55"/>
      <stop offset="100%" stop-color="#FFE3BC" stop-opacity="0"/>
    </radialGradient>
    <clipPath id="screen"><circle cx="180" cy="180" r="178"/></clipPath>
  </defs>
  <circle cx="180" cy="180" r="178" fill="url(#bg)"/>
  <g clip-path="url(#screen)">
    <circle cx="180" cy="180" r="62" fill="url(#core)"/>
      <circle cx="262.2" cy="193.0" r="1.41" fill="#FFE3BC" fill-opacity="0.287"/>
      <circle cx="183.3" cy="199.6" r="2.01" fill="#FFE3BC" fill-opacity="0.416"/>
      <circle cx="133.0" cy="85.2" r="1.19" fill="#FFE3BC" fill-opacity="0.231"/>
      <circle cx="305.3" cy="256.2" r="0.80" fill="#FFE3BC" fill-opacity="0.121"/>
      <circle cx="220.3" cy="187.6" r="1.81" fill="#FFE3BC" fill-opacity="0.379"/>
      <circle cx="166.6" cy="179.5" r="2.07" fill="#FFE3BC" fill-opacity="0.426"/>
      <circle cx="180.1" cy="180.4" r="2.20" fill="#FFE3BC" fill-opacity="0.440"/>
      <circle cx="97.8" cy="156.2" r="1.38" fill="#FFE3BC" fill-opacity="0.282"/>
      <circle cx="168.5" cy="172.8" r="2.07" fill="#FFE3BC" fill-opacity="0.425"/>
      <circle cx="304.2" cy="185.1" r="1.01" fill="#FFE3BC" fill-opacity="0.183"/>
      <circle cx="140.5" cy="63.2" r="1.02" fill="#FFE3BC" fill-opacity="0.186"/>
      <circle cx="195.9" cy="203.6" r="1.93" fill="#FFE3BC" fill-opacity="0.402"/>
      <circle cx="94.5" cy="321.4" r="0.62" fill="#FFE3BC" fill-opacity="0.068"/>
      <circle cx="182.6" cy="181.8" r="2.17" fill="#FFE3BC" fill-opacity="0.438"/>
      <circle cx="73.2" cy="98.5" r="0.92" fill="#FFE3BC" fill-opacity="0.156"/>
      <circle cx="164.3" cy="57.3" r="1.02" fill="#FFE3BC" fill-opacity="0.185"/>
      <circle cx="240.8" cy="169.6" r="1.61" fill="#FFE3BC" fill-opacity="0.337"/>
      <circle cx="147.7" cy="169.0" r="1.87" fill="#FFE3BC" fill-opacity="0.392"/>
      <circle cx="84.8" cy="92.2" r="0.96" fill="#FFE3BC" fill-opacity="0.169"/>
      <circle cx="57.8" cy="115.4" r="0.88" fill="#FFE3BC" fill-opacity="0.145"/>
      <circle cx="274.1" cy="207.9" r="1.26" fill="#FFE3BC" fill-opacity="0.251"/>
      <circle cx="176.5" cy="194.0" r="2.06" fill="#FFE3BC" fill-opacity="0.424"/>
      <circle cx="180.3" cy="182.4" r="2.18" fill="#FFE3BC" fill-opacity="0.438"/>
      <circle cx="179.4" cy="183.6" r="2.17" fill="#FFE3BC" fill-opacity="0.437"/>
      <circle cx="125.6" cy="241.9" r="1.41" fill="#FFE3BC" fill-opacity="0.289"/>
      <circle cx="188.3" cy="211.8" r="1.89" fill="#FFE3BC" fill-opacity="0.394"/>
      <circle cx="197.4" cy="172.7" r="2.02" fill="#FFE3BC" fill-opacity="0.418"/>
      <circle cx="114.1" cy="126.1" r="1.39" fill="#FFE3BC" fill-opacity="0.283"/>
      <circle cx="178.8" cy="171.2" r="2.12" fill="#FFE3BC" fill-opacity="0.432"/>
      <circle cx="174.1" cy="185.6" r="2.12" fill="#FFE3BC" fill-opacity="0.433"/>
      <circle cx="68.6" cy="45.3" r="0.53" fill="#FFE3BC" fill-opacity="0.039"/>
      <circle cx="153.7" cy="119.7" r="1.57" fill="#FFE3BC" fill-opacity="0.328"/>
      <circle cx="201.6" cy="48.7" r="0.93" fill="#FFE3BC" fill-opacity="0.159"/>
      <circle cx="194.2" cy="182.9" r="2.06" fill="#FFE3BC" fill-opacity="0.424"/>
      <circle cx="177.2" cy="204.9" r="1.96" fill="#FFE3BC" fill-opacity="0.408"/>
      <circle cx="191.8" cy="175.6" r="2.08" fill="#FFE3BC" fill-opacity="0.427"/>
      <circle cx="123.8" cy="310.6" r="0.84" fill="#FFE3BC" fill-opacity="0.134"/>
      <circle cx="111.2" cy="232.9" r="1.37" fill="#FFE3BC" fill-opacity="0.279"/>
      <circle cx="32.2" cy="219.1" r="0.74" fill="#FFE3BC" fill-opacity="0.103"/>
      <circle cx="180.4" cy="198.6" r="2.02" fill="#FFE3BC" fill-opacity="0.418"/>
      <circle cx="174.7" cy="246.5" r="1.56" fill="#FFE3BC" fill-opacity="0.326"/>
      <circle cx="237.2" cy="137.2" r="1.52" fill="#FFE3BC" fill-opacity="0.315"/>
      <circle cx="187.2" cy="216.7" r="1.84" fill="#FFE3BC" fill-opacity="0.386"/>
      <circle cx="3.1" cy="169.4" r="0.51" fill="#FFE3BC" fill-opacity="0.032"/>
      <circle cx="182.9" cy="180.9" r="2.17" fill="#FFE3BC" fill-opacity="0.438"/>
      <circle cx="177.1" cy="177.0" r="2.16" fill="#FFE3BC" fill-opacity="0.437"/>
      <circle cx="74.3" cy="236.3" r="1.06" fill="#FFE3BC" fill-opacity="0.195"/>
      <circle cx="178.8" cy="181.1" r="2.18" fill="#FFE3BC" fill-opacity="0.439"/>
      <circle cx="6.1" cy="147.8" r="0.51" fill="#FFE3BC" fill-opacity="0.034"/>
      <circle cx="288.6" cy="50.1" r="0.58" fill="#FFE3BC" fill-opacity="0.056"/>
      <circle cx="180.0" cy="179.9" r="2.20" fill="#FFE3BC" fill-opacity="0.440"/>
      <circle cx="89.7" cy="158.6" r="1.31" fill="#FFE3BC" fill-opacity="0.264"/>
      <circle cx="168.1" cy="165.4" r="2.02" fill="#FFE3BC" fill-opacity="0.418"/>
      <circle cx="176.1" cy="181.7" r="2.16" fill="#FFE3BC" fill-opacity="0.437"/>
      <circle cx="224.5" cy="166.7" r="1.76" fill="#FFE3BC" fill-opacity="0.369"/>
      <circle cx="168.1" cy="321.6" r="0.84" fill="#FFE3BC" fill-opacity="0.134"/>
      <circle cx="203.8" cy="229.5" r="1.68" fill="#FFE3BC" fill-opacity="0.351"/>
      <circle cx="284.7" cy="69.3" r="0.74" fill="#FFE3BC" fill-opacity="0.105"/>
      <circle cx="165.4" cy="162.5" r="1.98" fill="#FFE3BC" fill-opacity="0.412"/>
      <circle cx="223.9" cy="242.8" r="1.47" fill="#FFE3BC" fill-opacity="0.303"/>
      <circle cx="71.2" cy="152.5" r="1.13" fill="#FFE3BC" fill-opacity="0.215"/>
      <circle cx="65.8" cy="157.9" r="1.09" fill="#FFE3BC" fill-opacity="0.204"/>
      <circle cx="180.0" cy="180.0" r="2.20" fill="#FFE3BC" fill-opacity="0.440"/>
      <circle cx="180.2" cy="179.9" r="2.20" fill="#FFE3BC" fill-opacity="0.440"/>
      <circle cx="250.1" cy="55.5" r="0.84" fill="#FFE3BC" fill-opacity="0.132"/>
      <circle cx="202.4" cy="188.5" r="1.97" fill="#FFE3BC" fill-opacity="0.410"/>
      <circle cx="314.8" cy="133.3" r="0.84" fill="#FFE3BC" fill-opacity="0.132"/>
      <circle cx="177.3" cy="180.2" r="2.17" fill="#FFE3BC" fill-opacity="0.438"/>
      <circle cx="180.1" cy="178.1" r="2.18" fill="#FFE3BC" fill-opacity="0.439"/>
      <circle cx="258.2" cy="261.7" r="1.12" fill="#FFE3BC" fill-opacity="0.213"/>
      <circle cx="132.2" cy="164.5" r="1.72" fill="#FFE3BC" fill-opacity="0.361"/>
      <circle cx="193.0" cy="166.6" r="2.02" fill="#FFE3BC" fill-opacity="0.418"/>
      <circle cx="189.8" cy="220.1" r="1.81" fill="#FFE3BC" fill-opacity="0.379"/>
      <circle cx="172.2" cy="118.2" r="1.60" fill="#FFE3BC" fill-opacity="0.335"/>
      <circle cx="175.6" cy="190.8" r="2.09" fill="#FFE3BC" fill-opacity="0.428"/>
      <circle cx="76.1" cy="37.3" r="0.51" fill="#FFE3BC" fill-opacity="0.034"/>
      <circle cx="136.5" cy="175.2" r="1.78" fill="#FFE3BC" fill-opacity="0.374"/>
      <circle cx="180.8" cy="184.8" r="2.15" fill="#FFE3BC" fill-opacity="0.436"/>
      <circle cx="156.1" cy="165.2" r="1.93" fill="#FFE3BC" fill-opacity="0.403"/>
      <circle cx="182.7" cy="194.4" r="2.06" fill="#FFE3BC" fill-opacity="0.424"/>
      <circle cx="178.7" cy="178.5" r="2.18" fill="#FFE3BC" fill-opacity="0.439"/>
      <circle cx="192.0" cy="171.9" r="2.06" fill="#FFE3BC" fill-opacity="0.424"/>
      <circle cx="304.2" cy="239.3" r="0.89" fill="#FFE3BC" fill-opacity="0.146"/>
      <circle cx="172.4" cy="166.5" r="2.05" fill="#FFE3BC" fill-opacity="0.423"/>
      <circle cx="188.7" cy="189.6" r="2.08" fill="#FFE3BC" fill-opacity="0.426"/>
      <circle cx="36.6" cy="111.4" r="0.68" fill="#FFE3BC" fill-opacity="0.086"/>
      <circle cx="190.7" cy="131.4" r="1.72" fill="#FFE3BC" fill-opacity="0.362"/>
      <circle cx="225.3" cy="295.2" r="1.02" fill="#FFE3BC" fill-opacity="0.184"/>
      <circle cx="176.9" cy="181.4" r="2.17" fill="#FFE3BC" fill-opacity="0.438"/>
      <circle cx="139.6" cy="188.5" r="1.81" fill="#FFE3BC" fill-opacity="0.379"/>
      <circle cx="131.8" cy="87.8" r="1.21" fill="#FFE3BC" fill-opacity="0.236"/>
      <circle cx="321.2" cy="280.4" r="0.55" fill="#FFE3BC" fill-opacity="0.044"/>
      <circle cx="159.8" cy="212.1" r="1.84" fill="#FFE3BC" fill-opacity="0.385"/>
      <circle cx="181.2" cy="318.2" r="0.88" fill="#FFE3BC" fill-opacity="0.145"/>
      <circle cx="170.0" cy="183.4" r="2.10" fill="#FFE3BC" fill-opacity="0.430"/>
      <circle cx="172.7" cy="220.4" r="1.81" fill="#FFE3BC" fill-opacity="0.379"/>
      <circle cx="194.9" cy="172.2" r="2.04" fill="#FFE3BC" fill-opacity="0.421"/>
      <circle cx="208.7" cy="145.9" r="1.77" fill="#FFE3BC" fill-opacity="0.372"/>
      <circle cx="241.3" cy="200.2" r="1.58" fill="#FFE3BC" fill-opacity="0.330"/>
      <circle cx="271.5" cy="27.6" r="0.50" fill="#FFE3BC" fill-opacity="0.031"/>
      <circle cx="331.0" cy="104.7" r="0.59" fill="#FFE3BC" fill-opacity="0.058"/>
      <circle cx="247.6" cy="296.5" r="0.91" fill="#FFE3BC" fill-opacity="0.155"/>
      <circle cx="191.8" cy="230.8" r="1.70" fill="#FFE3BC" fill-opacity="0.357"/>
      <circle cx="215.1" cy="193.6" r="1.84" fill="#FFE3BC" fill-opacity="0.386"/>
      <circle cx="214.1" cy="176.8" r="1.87" fill="#FFE3BC" fill-opacity="0.392"/>
      <circle cx="184.0" cy="161.8" r="2.02" fill="#FFE3BC" fill-opacity="0.418"/>
      <circle cx="138.7" cy="201.7" r="1.75" fill="#FFE3BC" fill-opacity="0.368"/>
      <circle cx="345.2" cy="175.2" r="0.62" fill="#FFE3BC" fill-opacity="0.068"/>
      <circle cx="167.1" cy="115.7" r="1.57" fill="#FFE3BC" fill-opacity="0.328"/>
      <circle cx="177.8" cy="187.1" r="2.13" fill="#FFE3BC" fill-opacity="0.433"/>
      <circle cx="31.8" cy="99.5" r="0.59" fill="#FFE3BC" fill-opacity="0.058"/>
      <circle cx="179.2" cy="117.1" r="1.60" fill="#FFE3BC" fill-opacity="0.334"/>
      <circle cx="178.8" cy="179.3" r="2.19" fill="#FFE3BC" fill-opacity="0.439"/>
      <circle cx="213.3" cy="135.8" r="1.67" fill="#FFE3BC" fill-opacity="0.350"/>
      <circle cx="187.5" cy="178.1" r="2.13" fill="#FFE3BC" fill-opacity="0.433"/>
      <circle cx="181.0" cy="182.2" r="2.18" fill="#FFE3BC" fill-opacity="0.438"/>
      <circle cx="146.7" cy="114.3" r="1.50" fill="#FFE3BC" fill-opacity="0.310"/>
      <circle cx="191.1" cy="190.4" r="2.05" fill="#FFE3BC" fill-opacity="0.423"/>
      <circle cx="183.5" cy="326.0" r="0.80" fill="#FFE3BC" fill-opacity="0.123"/>
      <circle cx="126.2" cy="129.9" r="1.50" fill="#FFE3BC" fill-opacity="0.310"/>
      <circle cx="144.9" cy="159.6" r="1.81" fill="#FFE3BC" fill-opacity="0.380"/>
      <circle cx="234.2" cy="156.4" r="1.64" fill="#FFE3BC" fill-opacity="0.342"/>
      <circle cx="177.5" cy="168.3" r="2.09" fill="#FFE3BC" fill-opacity="0.428"/>
      <circle cx="167.6" cy="189.5" r="2.05" fill="#FFE3BC" fill-opacity="0.423"/>
      <circle cx="152.0" cy="266.1" r="1.34" fill="#FFE3BC" fill-opacity="0.270"/>
      <circle cx="180.3" cy="154.9" r="1.96" fill="#FFE3BC" fill-opacity="0.408"/>
      <circle cx="178.0" cy="180.5" r="2.18" fill="#FFE3BC" fill-opacity="0.439"/>
      <circle cx="357.5" cy="175.6" r="0.50" fill="#FFE3BC" fill-opacity="0.031"/>
      <circle cx="180.5" cy="182.0" r="2.18" fill="#FFE3BC" fill-opacity="0.439"/>
      <circle cx="197.0" cy="172.4" r="2.02" fill="#FFE3BC" fill-opacity="0.418"/>
      <circle cx="284.1" cy="81.3" r="0.83" fill="#FFE3BC" fill-opacity="0.130"/>
      <circle cx="197.9" cy="207.4" r="1.89" fill="#FFE3BC" fill-opacity="0.395"/>
      <circle cx="142.4" cy="54.9" r="0.95" fill="#FFE3BC" fill-opacity="0.166"/>
      <circle cx="256.9" cy="173.8" r="1.46" fill="#FFE3BC" fill-opacity="0.302"/>
      <circle cx="266.4" cy="184.2" r="1.37" fill="#FFE3BC" fill-opacity="0.280"/>
      <circle cx="141.5" cy="300.2" r="0.99" fill="#FFE3BC" fill-opacity="0.178"/>
      <circle cx="262.2" cy="146.8" r="1.35" fill="#FFE3BC" fill-opacity="0.274"/>
      <circle cx="184.4" cy="183.9" r="2.14" fill="#FFE3BC" fill-opacity="0.435"/>
      <circle cx="176.2" cy="178.7" r="2.16" fill="#FFE3BC" fill-opacity="0.437"/>
      <circle cx="164.6" cy="168.1" r="2.01" fill="#FFE3BC" fill-opacity="0.417"/>
      <circle cx="209.1" cy="277.0" r="1.23" fill="#FFE3BC" fill-opacity="0.243"/>
      <circle cx="172.8" cy="261.8" r="1.42" fill="#FFE3BC" fill-opacity="0.290"/>
      <circle cx="223.6" cy="150.5" r="1.70" fill="#FFE3BC" fill-opacity="0.356"/>
      <circle cx="292.1" cy="253.4" r="0.92" fill="#FFE3BC" fill-opacity="0.157"/>
      <circle cx="173.1" cy="220.7" r="1.81" fill="#FFE3BC" fill-opacity="0.379"/>
      <circle cx="180.0" cy="180.0" r="2.20" fill="#FFE3BC" fill-opacity="0.440"/>
      <circle cx="173.8" cy="262.5" r="1.41" fill="#FFE3BC" fill-opacity="0.289"/>
      <circle cx="78.6" cy="145.9" r="1.18" fill="#FFE3BC" fill-opacity="0.228"/>
      <circle cx="221.9" cy="182.6" r="1.80" fill="#FFE3BC" fill-opacity="0.377"/>
      <circle cx="181.6" cy="178.5" r="2.18" fill="#FFE3BC" fill-opacity="0.439"/>
      <circle cx="36.2" cy="137.6" r="0.77" fill="#FFE3BC" fill-opacity="0.112"/>
      <circle cx="66.3" cy="115.1" r="0.95" fill="#FFE3BC" fill-opacity="0.165"/>
      <circle cx="184.8" cy="185.0" r="2.13" fill="#FFE3BC" fill-opacity="0.434"/>
      <circle cx="199.4" cy="165.7" r="1.97" fill="#FFE3BC" fill-opacity="0.410"/>
      <circle cx="257.4" cy="87.3" r="1.05" fill="#FFE3BC" fill-opacity="0.192"/>
      <circle cx="216.9" cy="323.9" r="0.78" fill="#FFE3BC" fill-opacity="0.116"/>
      <circle cx="193.4" cy="190.1" r="2.04" fill="#FFE3BC" fill-opacity="0.421"/>
      <circle cx="267.1" cy="102.3" r="1.09" fill="#FFE3BC" fill-opacity="0.203"/>
      <circle cx="152.0" cy="153.5" r="1.83" fill="#FFE3BC" fill-opacity="0.384"/>
      <circle cx="186.7" cy="176.8" r="2.13" fill="#FFE3BC" fill-opacity="0.433"/>
      <circle cx="317.4" cy="159.3" r="0.87" fill="#FFE3BC" fill-opacity="0.143"/>
      <circle cx="271.6" cy="95.5" r="1.01" fill="#FFE3BC" fill-opacity="0.182"/>
      <circle cx="180.0" cy="179.7" r="2.20" fill="#FFE3BC" fill-opacity="0.440"/>
      <circle cx="204.8" cy="168.5" r="1.94" fill="#FFE3BC" fill-opacity="0.404"/>
      <circle cx="260.4" cy="87.7" r="1.03" fill="#FFE3BC" fill-opacity="0.188"/>
      <circle cx="166.9" cy="303.9" r="1.01" fill="#FFE3BC" fill-opacity="0.182"/>
      <circle cx="272.2" cy="254.5" r="1.07" fill="#FFE3BC" fill-opacity="0.198"/>
      <circle cx="269.0" cy="70.5" r="0.85" fill="#FFE3BC" fill-opacity="0.137"/>
      <circle cx="185.6" cy="167.4" r="2.07" fill="#FFE3BC" fill-opacity="0.425"/>
      <circle cx="163.8" cy="224.8" r="1.75" fill="#FFE3BC" fill-opacity="0.366"/>
      <circle cx="196.9" cy="299.4" r="1.05" fill="#FFE3BC" fill-opacity="0.193"/>
      <circle cx="180.1" cy="180.3" r="2.20" fill="#FFE3BC" fill-opacity="0.440"/>
      <circle cx="197.6" cy="159.8" r="1.94" fill="#FFE3BC" fill-opacity="0.405"/>
      <circle cx="149.4" cy="345.3" r="0.59" fill="#FFE3BC" fill-opacity="0.059"/>
      <circle cx="112.4" cy="229.3" r="1.40" fill="#FFE3BC" fill-opacity="0.286"/>
      <circle cx="12.1" cy="141.1" r="0.55" fill="#FFE3BC" fill-opacity="0.047"/>
      <circle cx="299.8" cy="286.1" r="0.67" fill="#FFE3BC" fill-opacity="0.083"/>
      <circle cx="253.4" cy="332.4" r="0.58" fill="#FFE3BC" fill-opacity="0.056"/>
      <circle cx="163.8" cy="346.0" r="0.61" fill="#FFE3BC" fill-opacity="0.063"/>
      <circle cx="176.3" cy="181.6" r="2.16" fill="#FFE3BC" fill-opacity="0.437"/>
      <circle cx="139.5" cy="275.7" r="1.21" fill="#FFE3BC" fill-opacity="0.236"/>
      <circle cx="104.2" cy="174.5" r="1.47" fill="#FFE3BC" fill-opacity="0.304"/>
      <circle cx="148.8" cy="163.7" r="1.86" fill="#FFE3BC" fill-opacity="0.390"/>
      <circle cx="175.5" cy="163.2" r="2.03" fill="#FFE3BC" fill-opacity="0.420"/>
      <circle cx="180.0" cy="180.0" r="2.20" fill="#FFE3BC" fill-opacity="0.440"/>
      <circle cx="168.1" cy="119.0" r="1.61" fill="#FFE3BC" fill-opacity="0.336"/>
      <circle cx="128.7" cy="85.9" r="1.18" fill="#FFE3BC" fill-opacity="0.228"/>
      <circle cx="208.9" cy="193.6" r="1.89" fill="#FFE3BC" fill-opacity="0.396"/>
      <circle cx="137.1" cy="257.8" r="1.35" fill="#FFE3BC" fill-opacity="0.274"/>
      <circle cx="194.3" cy="159.7" r="1.96" fill="#FFE3BC" fill-opacity="0.408"/>
      <circle cx="148.4" cy="276.7" r="1.23" fill="#FFE3BC" fill-opacity="0.242"/>
      <circle cx="159.7" cy="193.2" r="1.97" fill="#FFE3BC" fill-opacity="0.409"/>
      <circle cx="169.3" cy="216.3" r="1.84" fill="#FFE3BC" fill-opacity="0.385"/>
      <circle cx="175.3" cy="182.6" r="2.15" fill="#FFE3BC" fill-opacity="0.436"/>
      <circle cx="109.3" cy="36.1" r="0.67" fill="#FFE3BC" fill-opacity="0.082"/>
      <circle cx="68.1" cy="80.7" r="0.77" fill="#FFE3BC" fill-opacity="0.113"/>
      <circle cx="157.9" cy="173.1" r="1.98" fill="#FFE3BC" fill-opacity="0.411"/>
      <circle cx="180.0" cy="180.0" r="2.20" fill="#FFE3BC" fill-opacity="0.440"/>
      <circle cx="142.9" cy="159.6" r="1.80" fill="#FFE3BC" fill-opacity="0.377"/>
      <circle cx="95.5" cy="198.9" r="1.37" fill="#FFE3BC" fill-opacity="0.279"/>
      <circle cx="190.1" cy="223.3" r="1.78" fill="#FFE3BC" fill-opacity="0.372"/>
      <circle cx="220.6" cy="151.0" r="1.72" fill="#FFE3BC" fill-opacity="0.362"/>
      <circle cx="238.4" cy="285.7" r="1.05" fill="#FFE3BC" fill-opacity="0.192"/>
      <circle cx="177.3" cy="179.7" r="2.17" fill="#FFE3BC" fill-opacity="0.438"/>
      <circle cx="138.3" cy="250.4" r="1.42" fill="#FFE3BC" fill-opacity="0.291"/>
      <circle cx="180.9" cy="53.4" r="0.99" fill="#FFE3BC" fill-opacity="0.177"/>
      <circle cx="194.4" cy="269.6" r="1.33" fill="#FFE3BC" fill-opacity="0.269"/>
      <circle cx="191.3" cy="181.8" r="2.09" fill="#FFE3BC" fill-opacity="0.428"/>
      <circle cx="163.9" cy="182.5" r="2.04" fill="#FFE3BC" fill-opacity="0.422"/>
      <circle cx="301.1" cy="239.6" r="0.91" fill="#FFE3BC" fill-opacity="0.154"/>
      <circle cx="152.7" cy="151.0" r="1.82" fill="#FFE3BC" fill-opacity="0.381"/>
      <circle cx="176.4" cy="169.6" r="2.09" fill="#FFE3BC" fill-opacity="0.429"/>
      <circle cx="182.0" cy="233.7" r="1.69" fill="#FFE3BC" fill-opacity="0.354"/>
      <circle cx="266.9" cy="183.0" r="1.37" fill="#FFE3BC" fill-opacity="0.278"/>
      <circle cx="193.7" cy="71.5" r="1.16" fill="#FFE3BC" fill-opacity="0.222"/>
      <circle cx="176.5" cy="181.8" r="2.16" fill="#FFE3BC" fill-opacity="0.437"/>
      <circle cx="189.0" cy="177.6" r="2.11" fill="#FFE3BC" fill-opacity="0.431"/>
      <circle cx="235.3" cy="198.1" r="1.64" fill="#FFE3BC" fill-opacity="0.344"/>
      <circle cx="189.7" cy="166.3" r="2.04" fill="#FFE3BC" fill-opacity="0.421"/>
      <circle cx="194.9" cy="135.5" r="1.75" fill="#FFE3BC" fill-opacity="0.368"/>
      <circle cx="269.3" cy="173.2" r="1.34" fill="#FFE3BC" fill-opacity="0.272"/>
      <circle cx="250.1" cy="157.2" r="1.50" fill="#FFE3BC" fill-opacity="0.310"/>
      <circle cx="68.8" cy="84.8" r="0.80" fill="#FFE3BC" fill-opacity="0.122"/>
      <circle cx="78.4" cy="176.9" r="1.23" fill="#FFE3BC" fill-opacity="0.242"/>
      <circle cx="56.0" cy="141.5" r="0.96" fill="#FFE3BC" fill-opacity="0.168"/>
      <circle cx="174.1" cy="32.1" r="0.79" fill="#FFE3BC" fill-opacity="0.117"/>
      <circle cx="177.1" cy="230.1" r="1.72" fill="#FFE3BC" fill-opacity="0.361"/>
      <circle cx="169.3" cy="167.4" r="2.04" fill="#FFE3BC" fill-opacity="0.421"/>
      <circle cx="67.9" cy="164.9" r="1.12" fill="#FFE3BC" fill-opacity="0.213"/>
      <circle cx="167.6" cy="259.5" r="1.43" fill="#FFE3BC" fill-opacity="0.294"/>
      <circle cx="179.5" cy="182.2" r="2.18" fill="#FFE3BC" fill-opacity="0.439"/>
      <circle cx="171.8" cy="197.6" r="2.01" fill="#FFE3BC" fill-opacity="0.417"/>
      <circle cx="220.3" cy="227.7" r="1.60" fill="#FFE3BC" fill-opacity="0.335"/>
      <circle cx="174.9" cy="166.1" r="2.06" fill="#FFE3BC" fill-opacity="0.424"/>
      <circle cx="270.7" cy="218.7" r="1.26" fill="#FFE3BC" fill-opacity="0.250"/>
      <circle cx="142.7" cy="169.8" r="1.83" fill="#FFE3BC" fill-opacity="0.384"/>
      <circle cx="190.7" cy="218.6" r="1.82" fill="#FFE3BC" fill-opacity="0.381"/>
      <circle cx="213.7" cy="157.1" r="1.81" fill="#FFE3BC" fill-opacity="0.380"/>
      <circle cx="156.1" cy="112.8" r="1.52" fill="#FFE3BC" fill-opacity="0.315"/>
      <circle cx="193.4" cy="43.8" r="0.89" fill="#FFE3BC" fill-opacity="0.149"/>
      <circle cx="180" cy="180" r="110" fill="none" stroke="#FF9EB5" stroke-opacity="0.5" stroke-width="2"/>
    <path d="M180 166 L180 194" stroke="#FF9EB5" stroke-opacity="0.85" stroke-width="3" stroke-linecap="round"/>
    <path d="M168 184 L180 196 L192 184" fill="none" stroke="#FF9EB5" stroke-opacity="0.85" stroke-width="3" stroke-linecap="round" stroke-linejoin="round"/>
  </g>
  <text x="180" y="336" text-anchor="middle" font-family="-apple-system,Segoe UI,Roboto,sans-serif" font-size="14" font-weight="600" fill="#FF9EB5" fill-opacity="0.95">OFFLINE · 离线</text>
  <text x="180" y="352" text-anchor="middle" font-family="-apple-system,Segoe UI,Roboto,sans-serif" font-size="10" fill="#9a8e84" fill-opacity="0.7">OFFLINE · no network</text>
</svg>
